<?xml version="1.0" encoding="UTF-8" standalone="no"?>
<!-- Created with Inkscape (http://www.inkscape.org/) -->

<svg
   width="73.641182mm"
   height="16.652266mm"
   viewBox="0 0 73.641182 16.652266"
   version="1.1"
   id="svg1"
   xmlns="http://www.w3.org/2000/svg"
   xmlns:svg="http://www.w3.org/2000/svg">
  <defs
     id="defs1">
    <mask
       maskUnits="userSpaceOnUse"
       id="mask-powermask-path-effect21">
      <path
         id="mask-powermask-path-effect21_box"
         style="fill:#ffffff;fill-opacity:1"
         d="m 81.842484,60.95665 h 8 v 8 h -8 z" />
      <path
         style="font-weight:bold;font-size:39.7183px;line-height:1.5em;font-family:Viga;-inkscape-font-specification:'Viga Bold';text-align:center;letter-spacing:0px;text-anchor:middle;white-space:pre;stroke-width:0.361143;stroke-opacity:0.630326"
         d="m 85.287564,65.241871 0.457909,-0.0039 q -0.0039,0.03104 -0.0078,0.112535 -0.0039,0.08149 -0.0078,0.112535 0,0.02716 -0.0078,0.08925 -0.0078,0.06209 -0.01939,0.09313 -0.0078,0.02716 -0.02328,0.07373 -0.06985,0.20179 -0.380297,0.318207 -0.197905,0.06985 -0.415215,0.06985 -0.213434,0 -0.38806,-0.06985 -0.174625,-0.06985 -0.275515,-0.178507 -0.228958,-0.240593 -0.228958,-0.900287 0,-0.663575 0.228958,-0.904171 0.100891,-0.108654 0.275515,-0.178504 0.174626,-0.06985 0.38806,-0.06985 0.4191,0 0.63641,0.20955 0.217307,0.20955 0.217307,0.582083 h -0.457901 q 0,-0.170746 -0.08537,-0.252237 -0.08537,-0.08537 -0.318207,-0.08537 -0.228952,0 -0.306562,0.143579 -0.07373,0.143576 -0.07373,0.430739 v 0.201787 q 0,0.461788 0.178506,0.566563 0.08149,0.05045 0.213429,0.05045 0.13194,0 0.213437,-0.02328 0.08537,-0.02717 0.120298,-0.08925 0.0388,-0.06209 0.05045,-0.120298 0.01164,-0.06209 0.01553,-0.178507 z m 2.40594,0.811038 h -0.337605 l -0.155221,-0.267758 -0.5394,0.291042 q -0.450141,0 -0.605364,-0.325967 -0.07761,-0.159105 -0.10866,-0.34149 -0.02716,-0.186267 -0.02716,-0.384175 0,-0.20179 0.0039,-0.294923 0.0039,-0.09701 0.01939,-0.221192 0.01553,-0.128058 0.04269,-0.213428 0.03104,-0.08537 0.08537,-0.174625 0.05433,-0.09313 0.131937,-0.147463 0.174625,-0.120296 0.454025,-0.120296 h 0.531638 l 0.504473,-0.03105 z m -0.504467,-0.706263 v -1.039987 h -0.384175 q -0.213432,0 -0.298808,0.162984 -0.08149,0.162983 -0.08149,0.48895 0,0.322085 0.07761,0.454025 0.08149,0.131937 0.302686,0.131937 z"
         id="path21"
         aria-label="ca"
         display="block" />
    </mask>
  </defs>
  <g
     id="layer2"
     style="display:inline"
     transform="translate(-8.3665002,-50.894634)">
    <path
       style="font-size:192px;line-height:1.5em;font-family:Viga;-inkscape-font-specification:Viga;text-align:end;letter-spacing:-9.16139px;text-anchor:end;white-space:pre;fill:#e79bf3;stroke-width:3.69638;stroke-opacity:0.630326"
       d="M 159.47653,151.35836 H 95.540531 q 0,14.976 4.607999,21.888 4.8,6.912 19.008,6.912 9.216,0 13.632,-5.76 4.416,-5.952 4.416,-11.328 h 22.464 q 0,20.544 -11.136,30.144 -10.944,9.6 -29.184,9.6 -18.048,0 -28.031999,-5.184 -20.544,-10.56 -20.544,-56.064 0,-27.072 11.712,-39.552 11.712,-12.672001 35.711999,-12.672001 41.664,0 41.664,46.272001 0,4.992 -0.384,15.744 z m -63.359999,-17.088 h 41.087999 q 0,-12.672 -4.8,-18.432 -4.8,-5.76 -14.784,-5.76 -9.792,0 -15.744,5.952 -5.759999,5.76 -5.759999,18.24 z m 152.502669,35.712 v 2.88 q -1.152,14.4 -12.288,21.696 -10.944,7.296 -27.456,7.296 -24.384,0 -34.176,-8.832 -9.024,-8.064 -9.024,-23.808 v -2.304 h 22.656 q 0,8.832 4.608,12.096 4.608,3.264 15.936,3.264 15.36,0 15.36,-11.136 0,-9.216 -5.376,-12.288 -2.496,-1.536 -6.336,-2.304 l -19.392,-3.264 q -25.344,-4.032 -25.344,-31.68 0,-15.36 11.136,-23.808001 11.328,-8.64 28.608,-8.64 39.36,0 39.36,33.984001 v 2.496 h -21.696 q -0.384,-9.024 -4.8,-12.288 -4.416,-3.264 -12.48,-3.264 -7.872,0 -11.904,3.264 -4.032,3.072 -4.032,6.912 0,10.944 8.832,12.48 l 23.232,4.224 q 24.576,4.608 24.576,33.024 z m 58.61451,30.336 h -15.552 q -14.208,0 -21.696,-8.448 -7.296,-8.448 -7.296,-20.16 v -57.6 h -10.56 V 95.102359 h 10.56 v -21.504 h 24.96 v 21.504 h 17.664 v 19.008001 h -17.664 v 56.064 q 0,9.024 8.64,9.024 h 10.944 z m 69.75047,-109.248001 -6.912,24.576001 q -2.88,-1.152 -6.528,-1.152 -9.6,0 -23.616,8.256 v 77.568 h -24.96 V 90.686359 h 18.624 l 5.76,9.600001 26.496,-10.944001 q 1.92,-0.192 5.184,-0.192 3.264,0 5.952,1.92 z m 82.99849,109.248001 h -16.704 l -7.68,-13.248 -26.688,14.4 q -22.272,0 -29.952,-16.128 -3.84,-7.872 -5.376,-16.896 -1.344,-9.216 -1.344,-19.008 0,-9.984 0.192,-14.592 0.192,-4.8 0.96,-10.944 0.768,-6.336 2.112,-10.56 1.536,-4.224 4.224,-8.64 2.688,-4.608 6.528,-7.296001 8.64,-5.952 22.464,-5.952 h 26.304 l 24.96,-1.536 z m -24.96,-34.944 v -51.456 h -19.008 q -10.56,0 -14.784,8.064 -4.032,8.064 -4.032,24.192 0,15.936 3.84,22.464 4.032,6.528 14.976,6.528 z m 122.5507,34.944 h -16.704 l -7.68,-13.248 -26.688,14.4 q -22.272,0 -29.952,-16.128 -3.84,-7.872 -5.376,-16.896 -1.344,-9.216 -1.344,-19.008 0,-9.984 0.192,-14.592 0.192,-4.8 0.96,-10.944 0.768,-6.336 2.112,-10.56 1.536,-4.224 4.224,-8.64 2.688,-4.608 6.528,-7.296001 8.64,-5.952 22.464,-5.952 h 26.304 v -35.52 h 24.96 z m -24.96,-34.944 v -51.456 h -19.008 q -10.56,0 -14.784,8.064 -4.032,8.064 -4.032,24.192 0,15.936 3.84,22.464 4.032,6.528 14.976,6.528 z M 589.11612,48.830359 q 9.024,0 11.712,2.88 2.688,2.688 2.688,11.712 0,8.832 -2.88,11.712 -2.688,2.688 -11.712,2.688 -8.832,0 -11.712,-2.88 -2.688,-2.88 -2.688,-11.712 0,-8.832 2.688,-11.52 2.88,-2.88 11.904,-2.88 z m 12.288,151.488001 h -24.96 V 94.718359 h 24.96 z m 78.00652,-49.536 v -9.984 q 0,-14.208 -4.224,-21.696 -4.032,-7.488 -17.088,-7.488 -21.12,0 -21.12,28.416 v 9.984 q 0,30.528 21.12,30.528 13.632,0 17.856,-10.176 3.456,-8.064 3.456,-19.584 z m 24.96,-5.76 q 0,35.52 -13.44,47.616 -11.328,10.368 -32.832,10.368 -27.456,0 -37.056,-16.128 -9.024,-14.784 -9.024,-41.856 0,-25.344 9.024,-39.744 9.984,-16.128001 36.288,-16.128001 26.496,0 36.672,14.208001 10.368,14.016 10.368,41.664 z m 34.80648,55.296 -24.96,0.192 V 55.934359 h 24.96 z"
       id="text5"
       transform="matrix(0.09770196,0,0,0.09770196,1.4518852,46.123812)"
       aria-label="estradiol" />
    <path
       id="path5"
       clip-path="none"
       mask="url(#mask-powermask-path-effect21)"
       style="display:inline;fill:#fa00bb;stroke-width:0.978001;stroke-opacity:0.630326"
       transform="translate(-6.8348005,-0.40974987)"
       d="m 88.842484,64.95665 a 3,3 0 0 1 -3,3 3,3 0 0 1 -3,-3 3,3 0 0 1 3,-3 3,3 0 0 1 3,3 z" />
  </g>
</svg>
